<svg width="43" height="46" viewBox="0 0 43 46" fill="none" xmlns="http://www.w3.org/2000/svg">
<path d="M37.4987 21.957C39.9846 21.957 41.9998 19.9653 41.9998 17.5083C41.9998 15.0513 39.9846 13.0595 37.4987 13.0595C35.0129 13.0595 32.9977 15.0513 32.9977 17.5083C32.9977 19.9653 35.0129 21.957 37.4987 21.957Z" stroke="black" stroke-width="2" stroke-miterlimit="10"/>
<path d="M33.9979 39.752L30.9972 22.9456L28.9967 14.0481L25.996 0.207611" stroke="black" stroke-width="2" stroke-miterlimit="10" stroke-linejoin="round"/>
<path d="M29.4969 39.752L24.9958 24.9229H11.9928L10.2524 32.8317L6.99164 45.6837" stroke="black" stroke-width="2" stroke-miterlimit="10" stroke-linejoin="round"/>
<path d="M0.990234 45.6837L2.9907 33.8203L4.05095 21.2551C4.53106 19.268 6.0214 17.6566 7.99186 17.014L22.9954 15.0368L21.9951 1.19623" stroke="black" stroke-width="2" stroke-miterlimit="10" stroke-linejoin="round"/>
<path d="M16.994 24.9229L22.9954 45.6837" stroke="black" stroke-width="2" stroke-miterlimit="10" stroke-linejoin="round"/>
<path d="M12.993 33.8203L16.9939 45.6837" stroke="black" stroke-width="2" stroke-miterlimit="10" stroke-linejoin="round"/>
</svg>
