<svg width="49" height="48" viewBox="0 0 49 48" fill="none" xmlns="http://www.w3.org/2000/svg">
<rect opacity="0.24" x="16" width="32" height="32" rx="16" fill="#C8E6C9"/>
<path d="M6.72165 17.9733C6.72165 17.9733 5.21385 19.1088 3.20678 20.7769C1.19971 22.445 1.8887 25.0075 3.81589 27.2082C6.43208 30.2027 8.64884 31.8507 14.021 32.8355C17.6357 33.4987 19.0037 33.569 21.4502 35.4582L22.958 36.8349C24.2461 38.3925 28.1105 41.0052 30.5469 41.0052C32.9834 41.0052 38.9147 41.0052 40.2028 41.0052C43.1186 41.0052 44.866 38.915 45.9145 37.257C46.3039 36.644 46.973 35.3979 47.4223 34.1016" stroke="black" stroke-width="2" stroke-miterlimit="10"/>
<path d="M7.54046 15.8731C7.08113 16.5665 6.64177 17.7623 6.53193 18.6667C6.0726 22.3043 11.6045 26.2435 13.9811 27.1077C17.3362 28.3236 20.6314 27.7005 23.7868 31.5593C26.9422 35.418 31.186 36.9756 35.949 36.9756C40.7121 36.9756 44.5864 37.0158 46.5036 35.4783C47.7219 34.2725 48.7004 31.087 47.3424 30.5444C45.6349 29.861 41.4111 28.9566 39.0146 28.3638C37.3071 26.1329 31.0262 16.7574 30.0277 14.3658C29.2488 12.5067 28.3301 12.3058 26.6426 12.9288C25.1348 13.4915 22.279 14.818 19.4231 12.4565C16.5673 10.095 18.8939 8.36663 17.0566 8.14556C15.2292 7.92448 14.7 7.8039 13.2022 9.17053C12.0139 10.2558 7.99979 15.1898 7.54046 15.8731Z" stroke="black" stroke-width="2" stroke-miterlimit="10"/>
<path d="M32.9534 14.8682L26.9621 17.8828" stroke="black" stroke-width="2" stroke-miterlimit="10"/>
<path d="M34.9505 17.8828L28.9592 20.8975" stroke="black" stroke-width="2" stroke-miterlimit="10"/>
<path d="M36.9476 20.8975L30.9563 23.9121" stroke="black" stroke-width="2" stroke-miterlimit="10"/>
<path d="M38.9447 23.9121L32.9534 26.9268" stroke="black" stroke-width="2" stroke-miterlimit="10"/>
</svg>
