<svg width="48" height="48" viewBox="0 0 48 48" fill="none" xmlns="http://www.w3.org/2000/svg">
<rect opacity="0.24" x="8" y="14" width="32" height="32" rx="16" fill="black"/>
<path d="M46.0246 10.098L31.3155 3.98038L9.07634 12.8921C2.45335 15.9314 0.190417 26.4902 3.43851 32.3137C6.04283 36.9706 11.5148 39.7647 17.8745 42.2843C20.3227 43.2549 22.9173 43.1568 25.0534 42.6372C29.472 41.5686 33.5102 38.3725 34.4661 33.3235C35.0611 30.2059 34.4856 27.2059 33.1103 24.9804L46.0246 17.4902V10.098Z" stroke="black" stroke-width="2" stroke-miterlimit="10" stroke-linecap="round" stroke-linejoin="round"/>
<path d="M46.0246 10.098L23.7561 22.0882V22.0784C21.0153 23.4216 18.7816 26.4019 18.0695 30.1765C17.4063 33.6765 18.5182 37.4019 20.6641 39.7549" stroke="black" stroke-width="2" stroke-miterlimit="10" stroke-linecap="round"/>
<path d="M12.3732 15.2549L20.2349 19.647L25.0534 17.2157L17.2502 13.2941L12.3732 15.2549Z" stroke="black" stroke-width="2" stroke-miterlimit="10" stroke-linecap="round" stroke-linejoin="round"/>
</svg>
